[Header]
FileType HTR
DataType HTRS
FileVersion 1
NumSegments 22
NumFrames 7
DataFrameRate 24
EulerRotationOrder ZYX
CalibrationUnits mm
RotationUnits Degrees
GlobalAxisofGravity Y
BoneLengthAxis Y
ScaleFactor 1.0
[SegmentNames&Hierarchy]
reference	GLOBAL
Hips	reference
Spine	Hips
Spine1	Spine
Neck	Spine1
Head	Neck
LeftShoulder	Spine1
LeftArm	LeftShoulder
LeftForeArm	LeftArm
LeftHand	LeftForeArm
RightShoulder	Spine1
RightArm	RightShoulder
RightForeArm	RightArm
RightHand	RightForeArm
LeftUpLeg	Hips
LeftLeg	LeftUpLeg
LeftFoot	LeftLeg
LeftToeBase	LeftFoot
RightUpLeg	Hips
RightLeg	RightUpLeg
RightFoot	RightLeg
RightToeBase	RightFoot
[BasePosition]
reference	0	0	0	0	0	0	1
Hips	0	0	0	0	0	0	1
Spine	0	0	0	-0	-90	0	1
Spine1	0	0	0	0	0	0	1
Neck	0	0	0	82.64767223	-82.64767223	-90	1
Head	0	0	0	-0	-90	0	1
LeftShoulder	0	0	0	0	0	0	1
LeftArm	0	0	0	0	0	0	1
LeftForeArm	0	0	0	0	0	0	1
LeftHand	0	0	0	0	0	0	1
RightShoulder	0	0	0	0	-0	180	1
RightArm	0	0	0	0	-0	180	1
RightForeArm	0	0	0	0	-0	180	1
RightHand	0	0	0	0	-0	180	1
LeftUpLeg	0	0	0	-0	90	0	1
LeftLeg	0	0	0	-0	90	0	1
LeftFoot	0	0	0	-23.42853957	23.42853957	-90	1
LeftToeBase	0	0	0	0	-0	-90	1
RightUpLeg	0	0	0	-0	90	0	1
RightLeg	0	0	0	-0	90	0	1
RightFoot	0	0	0	-23.42853957	23.42853957	-90	1
RightToeBase	0	0	0	0	-0	-90	1
[reference]
1	0	0	0	0	-0	0	1.0
2	0	0	0	0	-0	0	1.0
3	0	0	0	0	-0	0	1.0
4	0	0	0	0	-0	0	1.0
5	0	0	0	0	-0	0	1.0
6	0	0	0	0	-0	0	1.0
7	0	0	0	0	-0	0	1.0
[Hips]
1	5.013849735	-0.5800200105	8.032249451	3.325397968	1.69053638	-105.2194061	1.0
2	5.007077217	-0.5800200105	8.032249451	3.258058071	1.834366322	-105.1825714	1.0
3	4.93579483	-0.5800200105	8.032249451	3.10253334	1.842558622	-105.6781769	1.0
4	4.762440205	-0.5800200105	8.032249451	3.341983318	0.9754068851	-107.35495	1.0
5	4.603899956	-0.5800200105	8.032249451	3.069879293	0.3465569615	-108.4394073	1.0
6	4.426184654	-0.5776158571	8.028326988	2.940387487	-0.1321513355	-109.5331879	1.0
7	4.071259975	-0.5259599686	7.977427483	1.696793795	-0.2996941209	-111.9616776	1.0
[Spine]
1	0	0	0.7457100153	9.221371651	87.07255554	20.8766098	1.0
2	0	0	0.7457100153	6.061188698	86.94165039	17.6074791	1.0
3	0	0	0.7457100153	6.557034492	86.89472961	18.18528748	1.0
4	0	0	0.7457100153	24.15877151	87.13412476	36.50504303	1.0
5	0	0	0.7457100153	33.59484863	86.97344208	46.26262665	1.0
6	0	0	0.7457100153	40.37362671	86.52403259	53.98678589	1.0
7	0	0	0.7457100153	50.58489227	85.23058319	64.89109039	1.0
[Spine1]
1	0	0	2.140589952	10.70918274	2.268259525	0.466622591	1.0
2	0	0	2.140589952	10.93354416	2.236706972	0.4226579666	1.0
3	0	0	2.140589952	11.5333662	2.059410334	0.4284294248	1.0
4	0	0	2.140589952	11.54529762	2.189551592	0.6998097897	1.0
5	0	0	2.140589952	11.81778908	2.630876541	0.9241649508	1.0
6	0	0	2.140589952	12.41246414	3.039405584	1.188067675	1.0
7	0	0	2.140589952	12.14247894	2.666236877	1.646673441	1.0
[Neck]
1	0	0	2.32246995	74.93409729	76.60693359	73.06962585	1.0
2	0	0	2.32246995	74.67949677	76.49015045	73.02723694	1.0
3	0	0	2.32246995	75.10816956	76.30418396	73.23719788	1.0
4	0	0	2.32246995	77.03694153	75.99893188	74.24848938	1.0
5	0	0	2.32246995	78.3886795	75.88467407	75.28861237	1.0
6	0	0	2.32246995	80.55934906	75.82759857	77.0892868	1.0
7	0	0	2.32246995	86.10585785	75.71281433	80.12435913	1.0
[Head]
1	0	-0.1818799973	1.409579992	-51.37069702	99.08930206	-43.13182068	1.0
2	0	-0.1818799973	1.409579992	-50.22434235	99.48562622	-42.00834656	1.0
3	0	-0.1818799973	1.409579992	-48.42011261	100.2225723	-39.9917717	1.0
4	0	-0.1818799973	1.409579992	-50.00030136	100.4116592	-42.19635391	1.0
5	0	-0.1818799973	1.409579992	-51.37272644	100.3577499	-43.70996094	1.0
6	0	-0.1818799973	1.409579992	-53.41472626	100.1203079	-46.00418091	1.0
7	0	-0.1818799973	1.409579992	-54.65941238	100.2174301	-47.26196289	1.0
[LeftShoulder]
1	0.3668199778	0.02662999928	1.946700096	-11.32353878	-3.328876972	-6.786058426	1.0
2	0.3668199778	0.02662999928	1.946700096	-11.2961216	-3.426403046	-6.763242722	1.0
3	0.3668199778	0.02662999928	1.946700096	-12.07765961	-3.778577089	-6.767692089	1.0
4	0.3668199778	0.02662999928	1.946700096	-11.99452019	-4.11814642	-6.403505325	1.0
5	0.3668199778	0.02662999928	1.946700096	-12.29530144	-4.467603683	-6.33786726	1.0
6	0.3668199778	0.02662999928	1.946700096	-12.03497601	-5.161717892	-6.047186375	1.0
7	0.3668199778	0.02662999928	1.946700096	-11.47506046	-5.374547958	-5.32142067	1.0
[LeftArm]
1	1.140689969	0	0	79.89330292	77.7567215	43.98946381	1.0
2	1.140689969	0	0	80.03991699	77.82833099	44.12402725	1.0
3	1.140689969	0	0	83.95243073	77.06280518	49.40044022	1.0
4	1.140689969	0	0	82.71541595	76.03868866	51.73113632	1.0
5	1.140689969	0	0	84.07301331	75.37678528	53.20727158	1.0
6	1.140689969	0	0	80.82782745	75.95679474	50.17196274	1.0
7	1.140689969	0	0	63.42950821	77.2265625	29.4889946	1.0
[LeftForeArm]
1	2.749800205	0	0	-11.85381699	4.685622692	-11.98417282	1.0
2	2.749800205	0	0	-12.04443932	4.47026968	-12.32161522	1.0
3	2.749800205	0	0	-12.645998	3.71732235	-14.37214756	1.0
4	2.749800205	0	0	-12.18409443	3.411746025	-18.64011002	1.0
5	2.749800205	0	0	-11.71774769	2.18560791	-22.3647213	1.0
6	2.749800205	0	0	-10.79510212	2.120656013	-26.67742538	1.0
7	2.749800205	0	0	-9.353714943	-1.858536363	-37.12652588	1.0
[LeftHand]
1	2.295179844	0	0	-11.45704842	1.490441561	-7.299951553	1.0
2	2.295179844	0	0	-11.6339016	1.102797866	-7.457012653	1.0
3	2.295179844	0	0	-12.18582153	0.09239113331	-7.884759426	1.0
4	2.295179844	0	0	-11.50157356	-1.486728787	-9.150268555	1.0
5	2.295179844	0	0	-10.99521542	-3.445007324	-9.650585175	1.0
6	2.295179844	0	0	-9.775948524	-5.014239311	-11.10408592	1.0
7	2.295179844	0	0	-9.755285263	-3.988379478	-12.55206108	1.0
[RightShoulder]
1	-0.3601199985	0.02662999928	1.946700096	-8.537410736	3.840128183	-173.7525482	1.0
2	-0.3601199985	0.02662999928	1.946700096	-8.653333664	3.885721922	-173.8261108	1.0
3	-0.3601199985	0.02662999928	1.946700096	-8.585939407	3.874845266	-173.876236	1.0
4	-0.3601199985	0.02662999928	1.946700096	-8.865541458	3.703534603	-173.5387268	1.0
5	-0.3601199985	0.02662999928	1.946700096	-8.216953278	3.892130852	-173.5900574	1.0
6	-0.3601199985	0.02662999928	1.946700096	-7.992610931	4.209915161	-173.0087128	1.0
7	-0.3601199985	0.02662999928	1.946700096	-8.483539581	4.973361492	-172.0513306	1.0
[RightArm]
1	-1.140689969	0	0	-96.90616608	-95.79415894	-38.87492371	1.0
2	-1.140689969	0	0	-96.42985535	-95.7376709	-39.20914459	1.0
3	-1.140689969	0	0	-95.47570801	-95.74040222	-40.35876083	1.0
4	-1.140689969	0	0	-89.04210663	-96.99966431	-49.12927246	1.0
5	-1.140689969	0	0	-92.35082245	-97.11687469	-47.855896	1.0
6	-1.140689969	0	0	-98.83486176	-97.71631622	-42.83622742	1.0
7	-1.140689969	0	0	-119.2156906	-98.04029083	-17.52401352	1.0
[RightForeArm]
1	-2.749800205	0	0	-1.878533483	1.948449135	-163.8188324	1.0
2	-2.749800205	0	0	-1.876459837	2.169795275	-163.6626892	1.0
3	-2.749800205	0	0	-2.362333536	2.909133434	-163.1639404	1.0
4	-2.749800205	0	0	-2.753318071	3.416829109	-161.5419464	1.0
5	-2.749800205	0	0	-3.111133814	3.346645594	-159.2295227	1.0
6	-2.749800205	0	0	-2.623754025	2.682219982	-155.8064423	1.0
7	-2.749800205	0	0	-2.150242329	6.633538246	-149.847229	1.0
[RightHand]
1	-2.295179844	0	0	-1.859818816	4.047761917	-171.6381226	1.0
2	-2.295179844	0	0	-1.886966825	4.086450577	-171.5672302	1.0
3	-2.295179844	0	0	-2.473287582	4.319783688	-171.5384521	1.0
4	-2.295179844	0	0	-2.968442202	4.474366665	-171.2773895	1.0
5	-2.295179844	0	0	-3.330677032	4.997344494	-170.9814301	1.0
6	-2.295179844	0	0	-2.756207228	5.002123833	-170.2047729	1.0
7	-2.295179844	0	0	-3.496957302	5.453349113	-168.6349945	1.0
[LeftUpLeg]
1	0.9094099998	0	0	19.22570801	-95.21438599	-36.83351135	1.0
2	0.9094099998	0	0	15.29951477	-95.25823975	-35.80578613	1.0
3	0.9094099998	0	0	13.25127411	-95.29151917	-40.50485992	1.0
4	0.9094099998	0	0	-17.29622269	-95.04418945	-15.3105135	1.0
5	0.9094099998	0	0	-48.83145142	-96.3431015	15.3396759	1.0
6	0.9094099998	0	0	-62.10152817	-98.87535095	29.1708107	1.0
7	0.9094099998	0	0	-52.00297546	-99.80029297	22.68201828	1.0
[LeftLeg]
1	0	0	-4.498080254	55.04238129	-81.72431946	-5.639422417	1.0
2	0	0	-4.498080254	63.89664459	-79.61112213	-9.285830498	1.0
3	0	0	-4.498080254	77.80343628	-70.19483185	-13.93618298	1.0
4	0	0	-4.498080254	75.8446579	-62.84732056	-12.5780735	1.0
5	0	0	-4.498080254	71.87099457	-62.42033386	-15.18850327	1.0
6	0	0	-4.498080254	66.15377808	-66.15354919	-18.32732773	1.0
7	0	0	-4.498080254	51.10323715	-77.65270996	-18.6142025	1.0
[LeftFoot]
1	0	0	-3.729400158	-60.47377014	-2.061608791	109.7230682	1.0
2	0	0	-3.729400158	-57.72729874	-2.806343794	113.5104141	1.0
3	0	0	-3.729400158	-53.60244751	-1.543729901	123.64608	1.0
4	0	0	-3.729400158	-53.11808777	0.6778684855	125.1612167	1.0
5	0	0	-3.729400158	-54.80757904	1.305469036	123.9682388	1.0
6	0	0	-3.729400158	-57.00769424	0.07871589065	120.0769958	1.0
7	0	0	-3.729400158	-56.07686615	-4.221654415	105.6771393	1.0
[LeftToeBase]
1	0	-1.364109993	-0.5911099911	-1.999999995e-006	0	-1.999999995e-006	1.0
2	0	-1.364109993	-0.5911099911	-1.999999995e-006	0	-1.999999995e-006	1.0
3	0	-1.364109993	-0.5911099911	-1.999999995e-006	0	-1.999999995e-006	1.0
4	0	-1.364109993	-0.5911099911	-1.999999995e-006	0	-1.999999995e-006	1.0
5	0	-1.364109993	-0.5911099911	-1.999999995e-006	0	-1.999999995e-006	1.0
6	0	-1.364109993	-0.5911099911	-1.999999995e-006	0	-1.999999995e-006	1.0
7	0	-1.364109993	-0.5911099911	-1.999999995e-006	0	-1.999999995e-006	1.0
[RightUpLeg]
1	-0.9094099998	0	0	-52.89910889	-98.5398407	59.53734589	1.0
2	-0.9094099998	0	0	-51.93643951	-98.62471771	58.78596497	1.0
3	-0.9094099998	0	0	-52.81824875	-98.66447449	60.31045151	1.0
4	-0.9094099998	0	0	-60.77534866	-98.78786469	68.75836182	1.0
5	-0.9094099998	0	0	-64.05436707	-97.95344543	73.15464783	1.0
6	-0.9094099998	0	0	-70.57563782	-97.36526489	80.82646942	1.0
7	-0.9094099998	0	0	-80.98040771	-98.09034729	94.92372894	1.0
[RightLeg]
1	0	0	-4.498080254	-63.0228653	-96.37439728	63.89267731	1.0
2	0	0	-4.498080254	-62.90973663	-96.37624359	63.71217346	1.0
3	0	0	-4.498080254	-61.28096008	-96.05529785	62.15221024	1.0
4	0	0	-4.498080254	-65.77911377	-94.69297791	67.50336456	1.0
5	0	0	-4.498080254	-74.60534668	-94.91671753	76.55142975	1.0
6	0	0	-4.498080254	-75.88276672	-95.21376038	78.06421661	1.0
7	0	0	-4.498080254	-77.50817871	-94.68857574	79.36413574	1.0
[RightFoot]
1	0	0	-3.729400158	-54.22372055	-24.07177925	82.48834229	1.0
2	0	0	-3.729400158	-54.25691223	-24.01165009	82.44100952	1.0
3	0	0	-3.729400158	-54.79685593	-24.96506882	83.03688049	1.0
4	0	0	-3.729400158	-55.72712708	-25.85989761	84.85513306	1.0
5	0	0	-3.729400158	-56.70154953	-26.43072701	86.08358765	1.0
6	0	0	-3.729400158	-57.54724884	-27.80043793	86.97814178	1.0
7	0	0	-3.729400158	-58.82382965	-28.98892593	89.0173645	1.0
[RightToeBase]
1	0	-1.364109993	-0.5911099911	1.999999995e-006	9.999999975e-007	1.999999995e-006	1.0
2	0	-1.364109993	-0.5911099911	1.999999995e-006	9.999999975e-007	1.999999995e-006	1.0
3	0	-1.364109993	-0.5911099911	1.999999995e-006	9.999999975e-007	1.999999995e-006	1.0
4	0	-1.364109993	-0.5911099911	1.999999995e-006	9.999999975e-007	1.999999995e-006	1.0
5	0	-1.364109993	-0.5911099911	1.999999995e-006	9.999999975e-007	1.999999995e-006	1.0
6	0	-1.364109993	-0.5911099911	1.999999995e-006	9.999999975e-007	1.999999995e-006	1.0
7	0	-1.364109993	-0.5911099911	1.999999995e-006	9.999999975e-007	1.999999995e-006	1.0
[EndOfFile]
